<?xml version="1.0" encoding="UTF-8" standalone="no"?>
<svg
   xmlns:dc="http://purl.org/dc/elements/1.1/"
   xmlns:cc="http://creativecommons.org/ns#"
   xmlns:rdf="http://www.w3.org/1999/02/22-rdf-syntax-ns#"
   xmlns:svg="http://www.w3.org/2000/svg"
   xmlns="http://www.w3.org/2000/svg"
   xmlns:sodipodi="http://sodipodi.sourceforge.net/DTD/sodipodi-0.dtd"
   xmlns:inkscape="http://www.inkscape.org/namespaces/inkscape"
   width="24"
   height="24"
   viewBox="0 0 24 24"
   id="svg2"
   version="1.1"
   inkscape:version="0.48.4 r9939"
   sodipodi:docname="ic_rss_grey600_24px.svg"
   inkscape:export-xdpi="135"
   inkscape:export-ydpi="135">
  <metadata
     id="metadata12">
    <rdf:RDF>
      <cc:Work
         rdf:about="">
        <dc:format>image/svg+xml</dc:format>
        <dc:type
           rdf:resource="http://purl.org/dc/dcmitype/StillImage" />
        <dc:title></dc:title>
      </cc:Work>
    </rdf:RDF>
  </metadata>
  <defs
     id="defs10" />
  <sodipodi:namedview
     pagecolor="#ffffff"
     bordercolor="#666666"
     borderopacity="1"
     objecttolerance="10"
     gridtolerance="10"
     guidetolerance="10"
     inkscape:pageopacity="0"
     inkscape:pageshadow="2"
     inkscape:window-width="1920"
     inkscape:window-height="1019"
     id="namedview8"
     showgrid="false"
     inkscape:zoom="13.906433"
     inkscape:cx="-0.23562978"
     inkscape:cy="14.236499"
     inkscape:window-x="0"
     inkscape:window-y="27"
     inkscape:window-maximized="1"
     inkscape:current-layer="svg2" />
  <path
     fill="none"
     d="M0 0h24v24H0z"
     id="path4" />
  <path
     d="m 4.2218258,4.2218251 0,2.8284271 c 7.0286402,0 12.7279222,5.6992818 12.7279222,12.7279218 l 2.828427,0 c 0,-8.584275 -6.965003,-15.5492773 -15.5563492,-15.5563489 z m -8e-7,11.3137079 1.4e-6,4.242642 4.2426407,0 C 8.471567,17.437652 6.5694189,15.535534 4.221825,15.535533 z m 8e-7,-5.6568537 -7e-7,2.8284257 c 3.9032287,10e-7 7.0710679,3.167841 7.0710689,7.07107 l 2.828427,-1e-6 c 0,-5.458864 -4.4335612,-9.8924237 -9.8994952,-9.8994947 z"
     id="path6"
     inkscape:connector-curvature="0"
     style="opacity:0.54" />
</svg>
